<svg width="256" height="256" viewBox="0 0 256 256" fill="none" xmlns="http://www.w3.org/2000/svg">
<path fill-rule="evenodd" clip-rule="evenodd" d="M255.472 130.072C255.438 90.0066 239.247 58.6012 218.843 38.2316C208.684 28.0888 197.665 19.6815 182.451 12.3862C152.646 -1.90123 115.26 -4.31055 83.9891 7.68548C71.4371 12.5041 62.895 17.0363 53.1566 24.0115C35.786 36.4456 20.7404 54.0522 10.8167 76.1909C0.690846 98.7677 -3.437 129.331 3.28549 157.063C29.4005 264.876 169.158 289.66 231.749 201.93C243.981 184.795 255.539 158.411 255.455 130.055L255.472 130.072Z" fill="#0D4728"/>
<path fill-rule="evenodd" clip-rule="evenodd" d="M73.0376 125.692L85.3032 130.999C91.6381 133.088 102.893 137.065 109.952 136.374C109.211 130.41 98.4617 116.628 93.2387 111.758C91.9246 110.545 90.9474 109.72 89.4984 108.557C85.9939 105.76 86.9543 107.159 86.0782 104.766C100.652 105.794 122.184 135.633 122.37 152.683C122.437 158.748 121.898 199.993 122.605 203.531C123.279 206.968 126.818 210.844 130.187 210.86C130.271 210.86 130.44 211.298 132.63 210.389C135.023 202.655 130.878 155.16 134.13 143.299C138.039 129.028 144.188 121.716 155.106 113.477C158.358 111.034 161.761 107.378 166.361 106.535C165.148 109.753 159.065 113.932 153.96 120.503C150.557 124.866 140.229 137.57 148.046 136.744C173.707 134.066 203.764 117.419 212.222 91.4898C213.014 89.0468 215.794 80.2856 213.536 78.1459C210.79 76.023 190.454 79.8139 186.444 80.8248C170.893 84.6999 155.578 90.9843 143.497 100.655C134.736 107.664 129.345 115.987 127.694 117.082C125.419 116.055 127.188 117.352 125.571 115.179C125.015 114.437 124.695 113.78 124.088 112.938C123.027 111.455 121.864 110.124 120.685 108.81C107.358 93.8654 88.7234 86.5532 69.769 81.1449C64.8156 79.7296 46.097 76.6127 41.8344 78.1627C38.6838 85.02 46.6699 101.245 51.6233 107.513C56.543 113.73 60.8899 117.504 67.2754 121.968C68.876 123.097 71.5549 124.411 73.0544 125.675L73.0376 125.692Z" fill="#FFFEE4"/>
</svg>
